<svg width="200" height="89" viewBox="0 0 200 89" fill="none" xmlns="http://www.w3.org/2000/svg">
<g clip-path="url(#clip0_504_3961)">
<path d="M45.2367 8.08923L81.5061 52.9955L36.2694 89L0 44.0937L45.2367 8.08923Z" fill="url(#paint0_linear_504_3961)"/>
<path d="M36.4968 0L47.3467 19.2572L27.1384 30.4702L16.2976 11.204L36.4968 0Z" fill="url(#paint1_linear_504_3961)"/>
<path d="M76.5222 36.8712H70.5015V33.287H81.8516V36.8712L78.0683 40.4012C78.8049 40.5637 79.4961 40.8346 80.1509 41.2408C80.8057 41.6381 81.3787 42.1166 81.8789 42.6853C82.3791 43.2541 82.7702 43.8951 83.0521 44.6083C83.334 45.3216 83.4796 46.089 83.4796 46.9015C83.4796 47.8766 83.2886 48.7703 82.9157 49.5919C82.5337 50.4135 82.0153 51.1267 81.3605 51.7316C80.6966 52.3365 79.9236 52.806 79.0323 53.14C78.141 53.474 77.1861 53.6456 76.1766 53.6456C75.2034 53.6456 74.2849 53.465 73.4209 53.1129C72.5569 52.7608 71.8021 52.2733 71.1745 51.6684C70.5379 51.0545 70.0377 50.3503 69.6739 49.5287C69.3101 48.7162 69.1191 47.8404 69.1191 46.9015H72.8479C72.8479 47.3439 72.9389 47.7592 73.1117 48.1384C73.2845 48.5176 73.53 48.8516 73.8302 49.1315C74.1303 49.4114 74.485 49.6371 74.876 49.8086C75.2671 49.9801 75.7037 50.0614 76.1584 50.0614C76.604 50.0614 77.0224 49.9801 77.4316 49.8086C77.8318 49.6371 78.1865 49.4114 78.4775 49.1315C78.7685 48.8516 79.005 48.5176 79.1778 48.1384C79.3506 47.7592 79.4415 47.3439 79.4415 46.9015C79.4415 46.4591 79.3506 46.0438 79.1778 45.6556C79.005 45.2674 78.7685 44.9334 78.4775 44.6445C78.1865 44.3646 77.8318 44.1389 77.4316 43.9673C77.0224 43.7958 76.604 43.7146 76.1584 43.7146C75.6764 43.7146 75.2398 43.7958 74.8488 43.9493C74.4486 44.1118 74.1121 44.3285 73.812 44.6083L71.1654 42.0714L76.5222 36.8712Z" fill="white"/>
<path d="M93.32 33.3051C94.8115 33.3051 96.203 33.5578 97.5035 34.0725C98.8041 34.578 99.9318 35.2913 100.887 36.2031C101.842 37.115 102.597 38.1983 103.133 39.4442C103.679 40.6992 103.952 42.0624 103.952 43.534C103.952 45.0056 103.679 46.3689 103.133 47.6238C102.587 48.8787 101.842 49.9621 100.887 50.8649C99.9318 51.7768 98.8041 52.481 97.5035 52.9956C96.203 53.5011 94.8115 53.763 93.32 53.763H86.1171V33.3051H93.32ZM99.8863 43.534C99.8863 42.6402 99.7135 41.8006 99.3588 41.0151C99.0132 40.2207 98.5403 39.5345 97.9492 38.9567C97.358 38.3789 96.6668 37.9094 95.8665 37.5664C95.0662 37.2233 94.2113 37.0518 93.3109 37.0518H90.0368V50.0614H93.32C94.2204 50.0614 95.0753 49.8899 95.8756 49.5468C96.6759 49.2037 97.3671 48.7343 97.9583 48.1564C98.5494 47.5786 99.0132 46.8925 99.3679 46.098C99.7135 45.2855 99.8863 44.4368 99.8863 43.534Z" fill="white"/>
<path d="M117.221 39.1553C117.221 38.8123 117.121 38.4872 116.93 38.1983C116.739 37.9004 116.484 37.6566 116.175 37.449C115.866 37.2413 115.502 37.0788 115.083 36.9524C114.665 36.8351 114.229 36.7719 113.774 36.7719C113.31 36.7719 112.883 36.8351 112.491 36.9524C112.091 37.0698 111.755 37.2323 111.455 37.4309C111.164 37.6296 110.927 37.8553 110.754 38.1171C110.582 38.3789 110.491 38.6497 110.491 38.9477C110.491 39.3991 110.691 39.7963 111.082 40.1394C111.473 40.4825 111.973 40.7353 112.555 40.8887L115.838 41.7193C116.629 41.8909 117.366 42.1527 118.057 42.5138C118.749 42.8659 119.358 43.2993 119.876 43.8139C120.404 44.3285 120.813 44.8882 121.122 45.5112C121.422 46.1341 121.577 46.8112 121.577 47.5335C121.577 48.4363 121.377 49.2579 120.986 49.9982C120.586 50.7385 120.04 51.3795 119.34 51.9212C118.639 52.4539 117.812 52.8782 116.857 53.1761C115.902 53.4831 114.865 53.6275 113.765 53.6275C112.682 53.6275 111.664 53.4741 110.718 53.1761C109.772 52.8692 108.945 52.4448 108.244 51.8941C107.544 51.3434 106.998 50.6753 106.598 49.9079C106.198 49.1405 106.007 48.2738 106.007 47.3259H109.79C109.79 47.7411 109.899 48.1203 110.118 48.4724C110.336 48.8155 110.636 49.1134 111 49.3662C111.364 49.619 111.791 49.8176 112.273 49.9621C112.755 50.1065 113.246 50.1788 113.765 50.1788C114.283 50.1788 114.765 50.1065 115.229 49.9711C115.693 49.8357 116.084 49.6461 116.411 49.4023C116.739 49.1586 117.002 48.8787 117.193 48.5627C117.384 48.2467 117.484 47.9037 117.484 47.5335C117.484 46.9828 117.257 46.4953 116.811 46.0709C116.357 45.6466 115.766 45.3396 115.029 45.1501L111.582 44.2924C110.882 44.1208 110.218 43.868 109.581 43.543C108.945 43.218 108.399 42.8208 107.926 42.3784C107.453 41.927 107.08 41.4124 106.807 40.8346C106.534 40.2568 106.389 39.6248 106.389 38.9567C106.389 38.1261 106.58 37.3587 106.971 36.6635C107.353 35.9593 107.88 35.3635 108.544 34.876C109.208 34.3794 109.981 34.0002 110.873 33.7204C111.764 33.4405 112.728 33.3051 113.756 33.3051C114.765 33.3051 115.711 33.4495 116.584 33.7294C117.457 34.0183 118.221 34.4155 118.876 34.9392C119.531 35.4628 120.04 36.0767 120.422 36.799C120.795 37.5212 120.986 38.3067 120.986 39.1734H117.221V39.1553Z" fill="white"/>
<path d="M148.188 47.7321C148.188 48.6079 148.015 49.4114 147.66 50.1426C147.315 50.883 146.833 51.5149 146.242 52.0476C145.641 52.5803 144.941 53.0046 144.132 53.3025C143.322 53.6005 142.467 53.7539 141.567 53.7539H131.799V33.3051H141.103C141.949 33.3051 142.749 33.4405 143.495 33.7113C144.241 33.9822 144.896 34.3704 145.45 34.8579C146.014 35.3454 146.451 35.9323 146.778 36.6184C147.096 37.3045 147.26 38.0539 147.26 38.8664C147.26 39.3901 147.178 39.8595 147.024 40.2748C146.869 40.6811 146.678 41.0512 146.442 41.3763C146.214 41.7013 145.951 41.9812 145.669 42.2249C145.387 42.4597 145.105 42.6583 144.823 42.8208C145.223 43.0013 145.632 43.2361 146.042 43.534C146.442 43.8229 146.805 44.175 147.115 44.5813C147.424 44.9875 147.688 45.457 147.888 45.9716C148.088 46.4862 148.188 47.0731 148.188 47.7321ZM135.71 41.2138H141.094C141.685 41.2138 142.176 41.0151 142.586 40.6179C142.986 40.2207 143.195 39.7241 143.195 39.1463C143.195 38.5685 142.995 38.0719 142.586 37.6566C142.176 37.2504 141.685 37.0427 141.094 37.0427H135.71V41.2138ZM144.159 47.4884C144.159 47.1453 144.086 46.8203 143.95 46.5043C143.813 46.1973 143.631 45.9265 143.395 45.7008C143.168 45.4751 142.886 45.2945 142.567 45.1591C142.249 45.0237 141.913 44.9514 141.558 44.9514H135.71V50.0524H141.558C141.903 50.0524 142.24 49.9801 142.567 49.8447C142.886 49.7093 143.168 49.5287 143.395 49.303C143.622 49.0773 143.813 48.8065 143.95 48.4995C144.086 48.1835 144.159 47.8495 144.159 47.4884Z" fill="white"/>
<path d="M154.809 33.3051H150.944V53.763H154.809V33.3051Z" fill="white"/>
<path d="M172.889 37.0969V53.2755H169.333V50.9552H169.278C168.851 51.7407 168.223 52.3997 167.387 52.9414C166.55 53.4831 165.522 53.754 164.313 53.754C163.394 53.754 162.557 53.5824 161.803 53.2484C161.048 52.9143 160.402 52.4449 159.856 51.84C159.311 51.2351 158.892 50.5038 158.583 49.6642C158.283 48.8155 158.128 47.8856 158.128 46.8835V37.0969H161.994V46.3779C161.994 46.8835 162.084 47.3439 162.266 47.7773C162.448 48.2106 162.703 48.5808 163.012 48.9058C163.321 49.2308 163.694 49.4926 164.131 49.6732C164.567 49.8628 165.022 49.9531 165.495 49.9531C165.995 49.9531 166.45 49.8628 166.877 49.6732C167.305 49.4836 167.669 49.2308 167.996 48.9058C168.314 48.5808 168.569 48.2016 168.751 47.7773C168.933 47.353 169.024 46.8835 169.024 46.3779V37.0969H172.889Z" fill="white"/>
<path d="M192.952 45.3848C192.952 45.6917 192.933 45.9897 192.897 46.2695C192.861 46.5494 192.806 46.8473 192.733 47.1543H179.955C180.301 48.03 180.865 48.7433 181.638 49.294C182.411 49.8447 183.302 50.1246 184.312 50.1246C185.03 50.1246 185.694 49.9801 186.294 49.7003C186.904 49.4204 187.431 49.0322 187.895 48.5446H192.142C191.869 49.3482 191.469 50.0704 190.942 50.7114C190.414 51.3614 189.814 51.9031 189.132 52.3455C188.45 52.7879 187.695 53.14 186.867 53.3838C186.04 53.6275 185.185 53.7539 184.303 53.7539C183.184 53.7539 182.093 53.5372 181.047 53.0949C180.001 52.6615 179.073 52.0656 178.273 51.3073C177.473 50.5489 176.836 49.6641 176.354 48.644C175.872 47.6238 175.635 46.5314 175.635 45.3757C175.635 44.175 175.863 43.0645 176.327 42.0443C176.791 41.0242 177.409 40.1484 178.2 39.3991C178.991 38.6497 179.919 38.0719 180.974 37.6566C182.029 37.2413 183.157 37.0337 184.357 37.0337C185.53 37.0337 186.64 37.2504 187.686 37.6927C188.723 38.1261 189.632 38.722 190.414 39.4623C191.196 40.2116 191.815 41.0874 192.26 42.1075C192.724 43.1277 192.952 44.2201 192.952 45.3848ZM188.759 43.8048C188.432 42.8388 187.868 42.0805 187.077 41.5117C186.285 40.9519 185.385 40.663 184.375 40.663C183.384 40.663 182.493 40.9429 181.702 41.5117C180.91 42.0714 180.347 42.8388 180.019 43.8048H188.759Z" fill="white"/>
<path d="M197.99 51.1989C197.99 52.6073 196.835 53.7449 195.416 53.7449C193.998 53.7449 192.843 52.6073 192.843 51.1989C192.843 49.7905 193.998 48.653 195.416 48.653C196.844 48.653 197.99 49.7905 197.99 51.1989Z" fill="#0038FF"/>
<path d="M63.9444 48.6078H40.6621V5.01965H40.844V48.4272H63.9444V48.6078Z" fill="white"/>
<path d="M42.9267 4.11682L42.3537 5.0377V5.69676H42.0536V5.0377L41.4716 4.11682H41.8262L42.1991 4.72171H42.2082L42.572 4.11682H42.9267Z" fill="white"/>
<path d="M65.354 51.0815H64.9993L64.6537 50.5489H64.6446L64.3081 51.0815H63.9443L64.4627 50.2961L63.9443 49.5016H64.3081L64.6446 50.0343H64.6537L64.9993 49.5016H65.354L64.8447 50.2961L65.354 51.0815Z" fill="white"/>
<path d="M39.88 48.5265C39.88 48.6439 39.8618 48.7522 39.8163 48.8515C39.7708 48.9508 39.7072 49.0411 39.6344 49.1134C39.5525 49.1856 39.4616 49.2488 39.3616 49.2849C39.2615 49.33 39.1433 49.3481 39.0251 49.3481C38.9068 49.3481 38.7977 49.33 38.6886 49.2849C38.5885 49.2398 38.4976 49.1856 38.4157 49.1134C38.3339 49.0411 38.2793 48.9508 38.2338 48.8515C38.1884 48.7522 38.1702 48.6439 38.1702 48.5265C38.1702 48.4092 38.1884 48.3008 38.2338 48.2015C38.2793 48.1022 38.343 48.0119 38.4157 47.9397C38.4885 47.8675 38.5794 47.8043 38.6886 47.7681C38.7977 47.732 38.9068 47.705 39.0251 47.705C39.1433 47.705 39.2524 47.723 39.3616 47.7681C39.4616 47.8133 39.5525 47.8675 39.6344 47.9397C39.7163 48.0119 39.7708 48.1022 39.8163 48.2015C39.8527 48.3008 39.88 48.4182 39.88 48.5265ZM39.5616 48.5265C39.5616 48.4543 39.5435 48.3821 39.5162 48.3189C39.4889 48.2557 39.4525 48.1925 39.3979 48.1473C39.3525 48.1022 39.2888 48.0571 39.2251 48.03C39.1615 48.0029 39.0887 47.9848 39.016 47.9848C38.9432 47.9848 38.8705 48.0029 38.8068 48.03C38.7431 48.0571 38.6795 48.0932 38.634 48.1473C38.5885 48.1925 38.543 48.2557 38.5158 48.3189C38.4885 48.3821 38.4703 48.4543 38.4703 48.5265C38.4703 48.5987 38.4885 48.671 38.5158 48.7342C38.543 48.7974 38.5794 48.8606 38.634 48.9057C38.6795 48.9508 38.7431 48.996 38.8068 49.0231C38.8705 49.0502 38.9432 49.0682 39.016 49.0682C39.0887 49.0682 39.1615 49.0502 39.2251 49.0231C39.2888 48.996 39.3525 48.9599 39.3979 48.9057C39.4434 48.8606 39.4889 48.7974 39.5162 48.7342C39.5525 48.671 39.5616 48.6078 39.5616 48.5265Z" fill="white"/>
<path d="M40.744 3.7196L39.9891 5.01967H41.4988L40.744 3.7196Z" fill="white"/>
<path d="M65.254 48.5175L63.9443 47.7682V49.2759L65.254 48.5175Z" fill="white"/>
<path d="M133.7 60.2993H133.127L132.363 58.9992H132.345L132.354 61.3195H131.754V58.0693H132.463L133.4 59.6493H133.418L134.364 58.0693H135.073V61.3195H134.473L134.482 58.9992H134.464L133.7 60.2993Z" fill="white"/>
<path d="M143.913 59.6945C143.913 59.9383 143.868 60.1549 143.777 60.3626C143.686 60.5702 143.559 60.7508 143.404 60.9043C143.25 61.0577 143.059 61.1751 142.849 61.2654C142.631 61.3557 142.404 61.3918 142.167 61.3918C141.922 61.3918 141.694 61.3467 141.485 61.2654C141.276 61.1751 141.085 61.0577 140.93 60.9043C140.776 60.7508 140.649 60.5702 140.558 60.3626C140.467 60.1549 140.421 59.9292 140.421 59.6945C140.421 59.4507 140.467 59.2341 140.558 59.0264C140.649 58.8188 140.776 58.6382 140.93 58.4847C141.085 58.3312 141.276 58.2139 141.485 58.1236C141.694 58.0333 141.922 57.9972 142.167 57.9972C142.413 57.9972 142.64 58.0423 142.849 58.1236C143.068 58.2139 143.25 58.3312 143.404 58.4847C143.559 58.6382 143.686 58.8188 143.777 59.0264C143.868 59.225 143.913 59.4507 143.913 59.6945ZM143.277 59.6945C143.277 59.541 143.25 59.3966 143.186 59.2611C143.131 59.1257 143.049 59.0083 142.949 58.909C142.849 58.8097 142.731 58.7285 142.595 58.6743C142.458 58.6201 142.313 58.584 142.158 58.584C142.004 58.584 141.858 58.6111 141.722 58.6743C141.585 58.7285 141.467 58.8097 141.367 58.909C141.267 59.0083 141.185 59.1257 141.131 59.2611C141.076 59.3966 141.04 59.541 141.04 59.6945C141.04 59.848 141.067 59.9924 141.131 60.1278C141.185 60.2633 141.267 60.3806 141.367 60.4799C141.467 60.5793 141.585 60.6605 141.722 60.7147C141.858 60.7688 142.004 60.805 142.158 60.805C142.313 60.805 142.458 60.7779 142.595 60.7147C142.731 60.6605 142.849 60.5793 142.949 60.4799C143.049 60.3806 143.131 60.2633 143.186 60.1278C143.24 59.9924 143.277 59.848 143.277 59.6945Z" fill="white"/>
<path d="M150.38 58.0693C150.616 58.0693 150.834 58.1054 151.044 58.1867C151.253 58.2679 151.426 58.3763 151.58 58.5207C151.735 58.6652 151.853 58.8367 151.935 59.0353C152.017 59.234 152.062 59.4506 152.062 59.6854C152.062 59.9201 152.017 60.1368 151.935 60.3354C151.853 60.534 151.735 60.7056 151.58 60.85C151.426 60.9945 151.253 61.1028 151.044 61.1841C150.834 61.2653 150.616 61.3014 150.38 61.3014H149.243V58.0513H150.38V58.0693ZM151.417 59.6944C151.417 59.55 151.389 59.4236 151.335 59.2972C151.28 59.1708 151.207 59.0624 151.116 58.9721C151.025 58.8819 150.916 58.8096 150.789 58.7555C150.662 58.7013 150.525 58.6742 150.389 58.6742H149.87V60.7417H150.389C150.534 60.7417 150.662 60.7146 150.789 60.6604C150.916 60.6063 151.025 60.534 151.116 60.4437C151.207 60.3535 151.28 60.2451 151.335 60.1187C151.389 59.9743 151.417 59.8389 151.417 59.6944Z" fill="white"/>
<path d="M159.793 60.7327V61.3195H157.392V58.0693H159.793V58.6652H158.01V59.3965H159.492V59.9833H158.01V60.7327H159.793Z" fill="white"/>
<path d="M167.378 61.3195H165.122V58.0693H165.75V60.7327H167.378V61.3195Z" fill="white"/>
<path d="M181.311 59.1798C181.311 59.3423 181.283 59.4868 181.22 59.6222C181.156 59.7576 181.074 59.875 180.974 59.9743C180.865 60.0736 180.747 60.1458 180.61 60.209C180.474 60.2632 180.319 60.2903 180.165 60.2903H179.346V61.3195H178.728V58.0693H180.165C180.328 58.0693 180.474 58.0964 180.61 58.1506C180.747 58.2048 180.874 58.286 180.974 58.3853C181.083 58.4846 181.165 58.602 181.22 58.7374C181.274 58.8728 181.311 59.0173 181.311 59.1798ZM180.674 59.1798C180.674 59.1076 180.656 59.0444 180.628 58.9812C180.601 58.918 180.565 58.8638 180.519 58.8187C180.474 58.7735 180.419 58.7374 180.356 58.7103C180.292 58.6833 180.228 58.6652 180.156 58.6652H179.337V59.6944H180.156C180.228 59.6944 180.292 59.6764 180.356 59.6493C180.419 59.6222 180.474 59.5861 180.519 59.5409C180.565 59.4958 180.601 59.4416 180.628 59.3784C180.665 59.3152 180.674 59.252 180.674 59.1798Z" fill="white"/>
<path d="M189.232 59.1798C189.232 59.4145 189.168 59.6222 189.05 59.7937C188.923 59.9743 188.768 60.1007 188.568 60.1819L189.141 61.3195H188.45L187.931 60.2903H187.258V61.3195H186.64V58.0693H188.077C188.241 58.0693 188.386 58.0964 188.523 58.1506C188.659 58.2048 188.786 58.286 188.886 58.3853C188.996 58.4846 189.077 58.602 189.132 58.7374C189.205 58.8728 189.232 59.0173 189.232 59.1798ZM188.595 59.1798C188.595 59.1076 188.577 59.0444 188.55 58.9812C188.523 58.918 188.486 58.8638 188.441 58.8187C188.395 58.7735 188.341 58.7374 188.277 58.7103C188.213 58.6833 188.15 58.6652 188.077 58.6652H187.258V59.6944H188.077C188.15 59.6944 188.213 59.6764 188.277 59.6493C188.341 59.6222 188.395 59.5861 188.441 59.5409C188.486 59.4958 188.523 59.4416 188.55 59.3784C188.586 59.3152 188.595 59.252 188.595 59.1798Z" fill="white"/>
<path d="M197.981 59.6945C197.981 59.9383 197.936 60.1549 197.845 60.3626C197.754 60.5702 197.626 60.7508 197.472 60.9043C197.317 61.0577 197.126 61.1751 196.917 61.2654C196.699 61.3557 196.471 61.3918 196.235 61.3918C195.989 61.3918 195.762 61.3467 195.553 61.2654C195.344 61.1751 195.153 61.0577 194.998 60.9043C194.843 60.7508 194.716 60.5702 194.625 60.3626C194.534 60.1549 194.489 59.9292 194.489 59.6945C194.489 59.4507 194.534 59.2341 194.625 59.0264C194.716 58.8188 194.843 58.6382 194.998 58.4847C195.153 58.3312 195.344 58.2139 195.553 58.1236C195.762 58.0333 195.989 57.9972 196.235 57.9972C196.48 57.9972 196.708 58.0423 196.917 58.1236C197.135 58.2139 197.317 58.3312 197.472 58.4847C197.626 58.6382 197.754 58.8188 197.845 59.0264C197.936 59.225 197.981 59.4507 197.981 59.6945ZM197.344 59.6945C197.344 59.541 197.317 59.3966 197.253 59.2611C197.199 59.1257 197.117 59.0083 197.017 58.909C196.917 58.8097 196.799 58.7285 196.662 58.6743C196.526 58.6201 196.38 58.584 196.226 58.584C196.071 58.584 195.926 58.6111 195.789 58.6743C195.653 58.7285 195.535 58.8097 195.434 58.909C195.334 59.0083 195.253 59.1257 195.198 59.2611C195.143 59.3966 195.107 59.541 195.107 59.6945C195.107 59.848 195.134 59.9924 195.198 60.1278C195.253 60.2633 195.334 60.3806 195.434 60.4799C195.535 60.5793 195.653 60.6605 195.789 60.7147C195.926 60.7688 196.071 60.805 196.226 60.805C196.38 60.805 196.526 60.7779 196.662 60.7147C196.799 60.6605 196.917 60.5793 197.017 60.4799C197.117 60.3806 197.199 60.2633 197.253 60.1278C197.317 59.9924 197.344 59.848 197.344 59.6945Z" fill="white"/>
</g>
<defs>
<linearGradient id="paint0_linear_504_3961" x1="26.3708" y1="30.7236" x2="52.3406" y2="63.3545" gradientUnits="userSpaceOnUse">
<stop stop-color="#00B9B9"/>
<stop offset="0.1337" stop-color="#00B3BC"/>
<stop offset="0.3176" stop-color="#00A1C6"/>
<stop offset="0.5307" stop-color="#0084D6"/>
<stop offset="0.7637" stop-color="#005CEC"/>
<stop offset="0.9424" stop-color="#0038FF"/>
<stop offset="1" stop-color="#0038FF"/>
</linearGradient>
<linearGradient id="paint1_linear_504_3961" x1="28.5985" y1="9.50004" x2="34.8072" y2="20.6922" gradientUnits="userSpaceOnUse">
<stop stop-color="#00B9B9"/>
<stop offset="0.1114" stop-color="#00B9B9"/>
<stop offset="0.4139" stop-color="#0087D4"/>
<stop offset="0.857" stop-color="#0038FF"/>
<stop offset="1" stop-color="#0038FF"/>
</linearGradient>
<clipPath id="clip0_504_3961">
<rect width="200" height="89" fill="white"/>
</clipPath>
</defs>
</svg>
