<svg width="160" height="160" viewBox="0 0 160 160" fill="none" xmlns="http://www.w3.org/2000/svg">
<mask id="mask0_4564_300978" style="mask-type:alpha" maskUnits="userSpaceOnUse" x="0" y="0" width="160" height="160">
<rect width="160" height="160" fill="#D0D0D0"/>
</mask>
<g mask="url(#mask0_4564_300978)">
<path d="M203.173 79.2013C203.192 104.899 195.218 129.961 180.363 150.896C178.886 153.036 177.327 155.094 175.603 157.152C155.812 181.721 127.387 197.746 96.1757 201.93C85.2883 203.459 74.2417 203.459 63.3543 201.93C32.1037 197.807 3.64808 181.735 -16.0735 157.07C-18.2069 154.518 -20.0939 151.884 -21.9811 149.25C-32.6768 133.28 -39.5044 115.024 -41.919 95.9375C-44.3336 76.8511 -42.2688 57.4628 -35.8887 39.3191C-29.5087 21.1754 -18.99 4.77839 -5.17224 -8.56387C8.64553 -21.9061 25.38 -31.8244 43.6968 -37.5276C62.0135 -43.2308 81.4058 -44.5611 100.326 -41.4123C119.246 -38.2635 137.171 -30.7227 152.671 -19.3916C168.17 -8.06046 180.816 6.74752 189.598 23.8511C198.381 40.9547 203.058 59.8806 203.255 79.119L203.173 79.2013Z" fill="#EFEFF0"/>
<path d="M150.075 171.643C152.395 222.029 162.829 214.493 80.5098 214.493C-2.96819 214.493 6.09699 200 10.9445 153.092C16.1619 102.608 52.09 102.029 80.5098 102.029C118.93 102.029 146.017 120 150.075 171.643Z" fill="#B0B0B0"/>
<path d="M9.925 171.643C7.60545 222.029 -2.82895 214.493 79.4902 214.493C162.968 214.493 153.903 200 149.055 153.092C143.838 102.608 107.91 102.029 79.4902 102.029C41.0704 102.029 13.983 120 9.925 171.643Z" fill="#B0B0B0"/>
<path d="M110.164 50.5642C110.164 66.5499 98.8979 91.1146 79.606 90.974C58.8636 90.974 49 66.5499 49 50.5642C49.3142 42.9042 52.6739 35.6593 58.3747 30.3474C64.0756 25.0356 71.6752 22.0688 79.5818 22.0688C87.4884 22.0688 95.0884 25.0356 100.789 30.3474C106.49 35.6593 109.849 42.9042 110.164 50.5642Z" fill="#B0B0B0"/>
</g>
</svg>
