<svg width="32" height="32" viewBox="0 0 32 32" fill="none" xmlns="http://www.w3.org/2000/svg">
<g filter="url(#filter0_d_215_4500)">
<rect x="2" y="2" width="28" height="28" rx="14" fill="white"/>
</g>
<path fill-rule="evenodd" clip-rule="evenodd" d="M13.4888 11.0367H11.4238C10.5954 11.0367 9.92383 11.7083 9.92383 12.5367V19.4C9.92383 20.2284 10.5954 20.9 11.4238 20.9H21.0029C21.8313 20.9 22.5029 20.2284 22.5029 19.4V12.5367C22.5029 11.7083 21.8313 11.0367 21.0029 11.0367H18.9369C18.6932 11.041 18.4767 10.8665 18.4354 10.6189L18.3745 10.2533C18.254 9.53 17.6282 8.99988 16.8949 8.99988L15.5307 8.99988C14.7975 8.99988 14.1717 9.53 14.0512 10.2533L13.9941 10.5954C13.9677 10.8212 13.7909 11.0011 13.5665 11.032C13.541 11.0356 13.5151 11.0372 13.4888 11.0367ZM13.074 10.0367H11.4238C10.0431 10.0367 8.92383 11.156 8.92383 12.5367V19.4C8.92383 20.7807 10.0431 21.9 11.4238 21.9H21.0029C22.3836 21.9 23.5029 20.7807 23.5029 19.4V12.5367C23.5029 11.156 22.3836 10.0367 21.0029 10.0367H19.3516C19.1297 8.85802 18.0993 7.99988 16.8949 7.99988H15.5307C14.3263 7.99988 13.2959 8.85802 13.074 10.0367Z" fill="#333333"/>
<path d="M19.071 16.0249C19.071 14.4417 17.7911 13.1582 16.2123 13.1582C14.6334 13.1582 13.3535 14.4417 13.3535 16.0249C13.3535 17.6081 14.6334 18.8916 16.2123 18.8916C17.7911 18.8916 19.071 17.6081 19.071 16.0249Z" stroke="#333333"/>
<defs>
<filter id="filter0_d_215_4500" x="0" y="0" width="32" height="32" filterUnits="userSpaceOnUse" color-interpolation-filters="sRGB">
<feFlood flood-opacity="0" result="BackgroundImageFix"/>
<feColorMatrix in="SourceAlpha" type="matrix" values="0 0 0 0 0 0 0 0 0 0 0 0 0 0 0 0 0 0 127 0" result="hardAlpha"/>
<feOffset/>
<feGaussianBlur stdDeviation="1"/>
<feComposite in2="hardAlpha" operator="out"/>
<feColorMatrix type="matrix" values="0 0 0 0 0 0 0 0 0 0 0 0 0 0 0 0 0 0 0.2 0"/>
<feBlend mode="normal" in2="BackgroundImageFix" result="effect1_dropShadow_215_4500"/>
<feBlend mode="normal" in="SourceGraphic" in2="effect1_dropShadow_215_4500" result="shape"/>
</filter>
</defs>
</svg>
