<svg width="148" height="30" viewBox="0 0 148 30" fill="none" xmlns="http://www.w3.org/2000/svg">
<rect x="1" y="0.5" width="41.5" height="29" rx="3.5" fill="#EAEAEA" stroke="#B2BCCA"/>
<path fill-rule="evenodd" clip-rule="evenodd" d="M13.9378 19.8228H11.3631L9.43244 12.2404C9.34081 11.8916 9.14623 11.5833 8.86002 11.438C8.14573 11.0727 7.35864 10.7821 6.5 10.6355V10.3436H10.6476C11.22 10.3436 11.6494 10.7821 11.7209 11.2914L12.7227 16.7608L15.2961 10.3436H17.7992L13.9378 19.8228ZM19.2303 19.8228H16.7988L18.801 10.3436H21.2326L19.2303 19.8228ZM24.3784 12.9696C24.45 12.4591 24.8793 12.1672 25.3802 12.1672C26.1672 12.0939 27.0246 12.2405 27.7402 12.6044L28.1695 10.5635C27.454 10.2716 26.6669 10.125 25.9526 10.125C23.5926 10.125 21.8753 11.438 21.8753 13.2603C21.8753 14.6466 23.0917 15.3745 23.9503 15.813C24.8793 16.2503 25.237 16.5422 25.1655 16.9794C25.1655 17.6353 24.45 17.9272 23.7357 17.9272C22.877 17.9272 22.0184 17.7086 21.2326 17.3434L20.8032 19.3856C21.6619 19.7495 22.5908 19.8961 23.4495 19.8961C26.0957 19.9681 27.7402 18.6564 27.7402 16.6875C27.7402 14.2081 24.3784 14.0628 24.3784 12.9696ZM36.2499 19.8228L34.3192 10.3436H32.2454C31.8161 10.3436 31.3868 10.6355 31.2437 11.0727L27.6685 19.8228H30.1716L30.6712 18.4377H33.7468L34.033 19.8228H36.2499ZM32.6033 12.8962L33.3176 16.4688H31.3154L32.6033 12.8962Z" fill="#28356A"/>
<rect x="53.5" y="0.5" width="41.5" height="29" rx="3.5" fill="#EAEAEA" stroke="#B2BCCA"/>
<path d="M76 29L95 23.25V26C95 27.6569 93.6569 29 92 29H76Z" fill="#FD6020"/>
<path fill-rule="evenodd" clip-rule="evenodd" d="M89.7421 11.3886C91.0487 11.3886 91.7673 11.993 91.7673 13.1347C91.8327 14.0078 91.2447 14.7466 90.4607 14.8809L92.2246 17.3657H90.8527L89.3501 14.948H89.2194V17.3657H88.1088V11.3886H89.7421ZM89.2195 14.1421H89.5461C90.2647 14.1421 90.5914 13.8063 90.5914 13.2019C90.5914 12.6646 90.2647 12.3288 89.5461 12.3288H89.2195V14.1421ZM84.2544 17.3657H87.3903V16.3584H85.365V14.7466H87.3249V13.7392H85.365V12.396H87.3903V11.3886H84.2544V17.3657ZM80.9877 15.4181L79.4851 11.3886H78.3092L80.7264 17.5001H81.3144L83.7316 11.3886H82.5557L80.9877 15.4181ZM67.7255 14.4106C67.7255 16.0896 69.0321 17.4999 70.6654 17.4999C71.188 17.4999 71.6454 17.3656 72.1027 17.1641V15.821C71.776 16.2239 71.3187 16.4926 70.7961 16.4926C69.7508 16.4926 68.9015 15.6867 68.9015 14.6121V14.4778C68.8361 13.4033 69.6854 12.463 70.7307 12.3959C71.2534 12.3959 71.776 12.6645 72.1027 13.0675V11.7243C71.7107 11.4557 71.188 11.3885 70.7307 11.3885C69.0321 11.2542 67.7255 12.6645 67.7255 14.4106ZM65.7003 13.672C65.047 13.4033 64.851 13.269 64.851 12.9332C64.9163 12.5303 65.243 12.1945 65.635 12.2616C65.9616 12.2616 66.2883 12.4631 66.5496 12.7317L67.1376 11.9258C66.6803 11.5229 66.0923 11.2542 65.5043 11.2542C64.5897 11.1871 63.8057 11.9258 63.7404 12.8661V12.9332C63.7404 13.7391 64.067 14.2092 65.1123 14.545C65.3736 14.6122 65.635 14.7465 65.8963 14.8808C66.0923 15.0151 66.2229 15.2166 66.2229 15.4852C66.2229 15.9554 65.831 16.3583 65.439 16.3583H65.3736C64.851 16.3583 64.3937 16.0225 64.1977 15.5524L63.4791 16.2911C63.871 17.0299 64.655 17.4328 65.439 17.4328C66.4843 17.5 67.3336 16.6941 67.3989 15.6196V15.4181C67.3336 14.6122 67.0069 14.2092 65.7003 13.672ZM61.9111 17.3657H63.0217V11.3886H61.9111V17.3657ZM56.75 11.3886H58.3833H58.7099C60.2779 11.4558 61.5192 12.799 61.4538 14.4108C61.4538 15.2838 61.0618 16.0897 60.4085 16.6942C59.8206 17.1643 59.1019 17.4329 58.3833 17.3658H56.75V11.3886ZM58.1873 16.3584C58.71 16.4256 59.2979 16.2241 59.6899 15.8883C60.0819 15.4854 60.2779 14.9481 60.2779 14.3437C60.2779 13.8064 60.0819 13.2691 59.6899 12.8662C59.2979 12.5304 58.71 12.3289 58.1873 12.3961H57.8607V16.3584H58.1873Z" fill="#2C2C2C"/>
<path fill-rule="evenodd" clip-rule="evenodd" d="M75.4347 11.25C73.8014 11.25 72.4294 12.5932 72.4294 14.3393C72.4294 16.0183 73.7361 17.4286 75.4347 17.4958C77.1333 17.5629 78.4399 16.1526 78.5052 14.4065C78.4399 12.6603 77.1333 11.25 75.4347 11.25V11.25Z" fill="#FD6020"/>
<rect x="106" y="0.5" width="41.5" height="29" rx="3.5" fill="#EAEAEA" stroke="#B2BCCA"/>
<path fill-rule="evenodd" clip-rule="evenodd" d="M126.974 21.0369C125.494 22.2845 123.574 23.0376 121.476 23.0376C116.795 23.0376 113 19.288 113 14.6626C113 10.0372 116.795 6.2876 121.476 6.2876C123.574 6.2876 125.494 7.04072 126.974 8.28827C128.454 7.04072 130.374 6.2876 132.472 6.2876C137.153 6.2876 140.947 10.0372 140.947 14.6626C140.947 19.288 137.153 23.0376 132.472 23.0376C130.374 23.0376 128.454 22.2845 126.974 21.0369Z" fill="#ED0006"/>
<path fill-rule="evenodd" clip-rule="evenodd" d="M126.974 21.037C128.796 19.5008 129.952 17.2151 129.952 14.6626C129.952 12.1101 128.796 9.82435 126.974 8.28822C128.454 7.0407 130.374 6.2876 132.471 6.2876C137.153 6.2876 140.947 10.0372 140.947 14.6626C140.947 19.288 137.153 23.0376 132.471 23.0376C130.374 23.0376 128.454 22.2845 126.974 21.037Z" fill="#F9A000"/>
<path fill-rule="evenodd" clip-rule="evenodd" d="M126.974 21.0369C128.796 19.5008 129.952 17.2151 129.952 14.6626C129.952 12.1102 128.796 9.82446 126.974 8.28833C125.151 9.82446 123.996 12.1102 123.996 14.6626C123.996 17.2151 125.151 19.5008 126.974 21.0369Z" fill="#FD6020"/>
</svg>
