<svg width="29" height="28" viewBox="0 0 29 28" fill="none" xmlns="http://www.w3.org/2000/svg">
<mask id="mask0_512_3834" style="mask-type:alpha" maskUnits="userSpaceOnUse" x="0" y="0" width="29" height="28">
<path d="M15.3735 5.17343L15.5158 5.65276L15.3735 5.17343ZM16.2621 4.90067L16.1133 4.42334V4.42334L16.2621 4.90067ZM12.4185 7.03391L12.0963 6.65151L12.4185 7.03391ZM10.4211 8.50538L10.6634 8.94279L10.4211 8.50538ZM9.4096 8.93524L9.5379 9.4185L9.55202 9.41475L9.5659 9.41018L9.4096 8.93524ZM7.07124 9.40715L6.98651 8.91439H6.98651L7.07124 9.40715ZM1.56968 12.4261L1.08989 12.2854L1.56968 12.4261ZM6.10128 18.6536L6.3848 18.2417L6.10128 18.6536ZM7.15937 19.3926L7.63741 19.246L7.5881 19.0852L7.45159 18.9869L7.15937 19.3926ZM7.36907 20.1095L7.84985 19.9722H7.84985L7.36907 20.1095ZM9.3881 23.6121L9.63709 23.1785L9.3881 23.6121ZM13.3442 23.5681L13.2161 23.0848L13.3442 23.5681ZM15.3735 23.1467L15.3281 22.6487H15.3281L15.3735 23.1467ZM17.1309 23.1309L17.1151 23.6307H17.1151L17.1309 23.1309ZM20.6173 22.5877L20.3632 22.1571V22.1571L20.6173 22.5877ZM23.8894 18.1219L23.4265 17.933V17.933L23.8894 18.1219ZM24.6059 15.7478L24.3512 15.3175L24.1593 15.4311L24.1156 15.6497L24.6059 15.7478ZM27.0545 12.4261L27.5544 12.4331L27.5544 12.4331L27.0545 12.4261ZM24.7159 8.68462L24.2174 8.72254L24.2354 8.95875L24.4295 9.09446L24.7159 8.68462ZM23.0373 4.76063L23.3372 4.36054V4.36054L23.0373 4.76063ZM15.5158 5.65276C15.8096 5.56557 16.1099 5.47191 16.411 5.37799L16.1133 4.42334C15.8109 4.51765 15.5173 4.60922 15.2313 4.6941L15.5158 5.65276ZM12.7406 7.41632C13.661 6.64093 14.4794 5.96038 15.5158 5.65276L15.2313 4.6941C13.9623 5.07076 12.9897 5.89896 12.0963 6.65151L12.7406 7.41632ZM10.6634 8.94279C11.4444 8.51026 12.1165 7.94205 12.7406 7.41632L12.0963 6.65151C11.4599 7.18759 10.8606 7.69045 10.1789 8.06798L10.6634 8.94279ZM9.5659 9.41018C9.94348 9.28592 10.3153 9.13553 10.6634 8.94279L10.1789 8.06798C9.90069 8.22205 9.59027 8.3494 9.25329 8.4603L9.5659 9.41018ZM7.15598 9.89992C7.94483 9.76427 8.76611 9.6234 9.5379 9.4185L9.28129 8.45198C8.56032 8.64339 7.78424 8.77721 6.98651 8.91439L7.15598 9.89992ZM2.04948 12.5668C2.31543 11.66 2.93989 11.1052 3.83847 10.7151C4.76066 10.3147 5.91141 10.1139 7.15598 9.89992L6.98651 8.91439C5.77458 9.12279 4.49465 9.34001 3.44024 9.79777C2.36221 10.2658 1.46415 11.0092 1.08989 12.2854L2.04948 12.5668ZM6.3848 18.2417C5.15454 17.3948 3.88565 16.5181 3.00941 15.5462C2.1409 14.5829 1.74034 13.6209 2.04948 12.5668L1.08989 12.2854C0.640659 13.8172 1.28852 15.1309 2.26671 16.2158C3.23717 17.2922 4.61325 18.2362 5.81776 19.0654L6.3848 18.2417ZM7.45159 18.9869C7.11253 18.7427 6.75071 18.4936 6.3848 18.2417L5.81776 19.0654C6.18553 19.3186 6.5383 19.5615 6.86716 19.7983L7.45159 18.9869ZM7.84985 19.9722C7.78168 19.7334 7.71181 19.4887 7.63741 19.246L6.68134 19.5392C6.75243 19.771 6.81966 20.0064 6.88829 20.2467L7.84985 19.9722ZM9.63709 23.1785C8.62625 22.5981 8.26739 21.4343 7.84985 19.9722L6.88829 20.2467C7.27636 21.6057 7.71266 23.2266 9.13911 24.0457L9.63709 23.1785ZM13.2161 23.0848C11.774 23.4671 10.6236 23.7451 9.63709 23.1785L9.13911 24.0457C10.5464 24.8539 12.135 24.4059 13.4723 24.0515L13.2161 23.0848ZM15.3281 22.6487C14.6092 22.7143 13.8853 22.9075 13.2161 23.0848L13.4723 24.0515C14.1582 23.8697 14.7989 23.7012 15.419 23.6446L15.3281 22.6487ZM17.1467 22.6312C16.5657 22.6128 15.944 22.5925 15.3281 22.6487L15.419 23.6446C15.9634 23.5949 16.5233 23.612 17.1151 23.6307L17.1467 22.6312ZM20.3632 22.1571C19.4581 22.6912 18.4032 22.6709 17.1467 22.6312L17.1151 23.6307C18.3132 23.6685 19.6744 23.7246 20.8714 23.0184L20.3632 22.1571ZM23.4265 17.933C22.7157 19.675 21.8371 21.2874 20.3632 22.1571L20.8714 23.0184C22.6516 21.968 23.6327 20.0744 24.3524 18.3108L23.4265 17.933ZM24.1156 15.6497C23.9609 16.423 23.732 17.1844 23.4265 17.933L24.3524 18.3108C24.6816 17.5041 24.929 16.6819 25.0962 15.8458L24.1156 15.6497ZM26.5545 12.4191C26.537 13.6772 25.6906 14.5246 24.3512 15.3175L24.8606 16.178C26.2615 15.3487 27.5291 14.2475 27.5544 12.4331L26.5545 12.4191ZM24.4295 9.09446C25.7404 10.0106 26.5732 11.0785 26.5545 12.4191L27.5544 12.4331C27.58 10.6007 26.42 9.26554 25.0024 8.27478L24.4295 9.09446ZM22.7374 5.16073C23.7515 5.92078 24.0999 7.17775 24.2174 8.72254L25.2145 8.6467C25.0929 7.04837 24.7196 5.39665 23.3372 4.36054L22.7374 5.16073ZM16.411 5.37799C17.5799 5.01345 18.7592 4.64758 19.8717 4.53475C20.9756 4.42278 21.9463 4.56777 22.7374 5.16073L23.3372 4.36054C22.2694 3.56027 21.0107 3.41408 19.7708 3.53985C18.5394 3.66475 17.2606 4.06551 16.1133 4.42334L16.411 5.37799Z" fill="#C4C4C4"/>
</mask>
<g mask="url(#mask0_512_3834)">
<rect x="0.25" width="28" height="28" fill="#EAEAEA"/>
</g>
</svg>
