<svg width="131" height="57" viewBox="0 0 131 57" fill="none" xmlns="http://www.w3.org/2000/svg">
<g clip-path="url(#clip0_504_5694)">
<path d="M29.63 5.18079L53.3865 33.941L23.7564 57L0 28.2398L29.63 5.18079Z" fill="url(#paint0_linear_504_5694)"/>
<path d="M23.9053 0L31.0119 12.3332L17.7755 19.5146L10.6748 7.17559L23.9053 0Z" fill="url(#paint1_linear_504_5694)"/>
<path d="M50.1221 23.6141H46.1785V21.3186H53.6128V23.6141L51.1347 25.8749C51.6173 25.979 52.07 26.1524 52.4989 26.4126C52.9278 26.667 53.3031 26.9735 53.6307 27.3378C53.9584 27.702 54.2145 28.1126 54.3992 28.5694C54.5838 29.0262 54.6791 29.5176 54.6791 30.038C54.6791 30.6625 54.5541 31.2349 54.3098 31.7611C54.0596 32.2873 53.7201 32.744 53.2912 33.1314C52.8563 33.5188 52.35 33.8195 51.7662 34.0335C51.1824 34.2474 50.5569 34.3573 49.8957 34.3573C49.2583 34.3573 48.6566 34.2416 48.0907 34.0161C47.5248 33.7906 47.0304 33.4784 46.6193 33.091C46.2024 32.6978 45.8747 32.2468 45.6364 31.7206C45.3982 31.2002 45.2731 30.6394 45.2731 30.038H47.7154C47.7154 30.3213 47.775 30.5873 47.8882 30.8302C48.0014 31.073 48.1622 31.287 48.3588 31.4662C48.5554 31.6454 48.7877 31.79 49.0438 31.8999C49.3 32.0097 49.5859 32.0618 49.8838 32.0618C50.1757 32.0618 50.4497 32.0097 50.7178 31.8999C50.9799 31.79 51.2122 31.6454 51.4028 31.4662C51.5934 31.287 51.7483 31.073 51.8615 30.8302C51.9747 30.5873 52.0342 30.3213 52.0342 30.038C52.0342 29.7547 51.9747 29.4887 51.8615 29.2401C51.7483 28.9915 51.5934 28.7775 51.4028 28.5925C51.2122 28.4132 50.9799 28.2687 50.7178 28.1588C50.4497 28.049 50.1757 27.9969 49.8838 27.9969C49.5681 27.9969 49.2821 28.049 49.026 28.1473C48.7639 28.2513 48.5435 28.3901 48.3469 28.5694L46.6134 26.9446L50.1221 23.6141Z" fill="white"/>
<path d="M61.1245 21.3302C62.1015 21.3302 63.0129 21.4921 63.8648 21.8217C64.7166 22.1455 65.4553 22.6023 66.0808 23.1863C66.7062 23.7702 67.2007 24.4641 67.5521 25.262C67.9095 26.0657 68.0883 26.9388 68.0883 27.8813C68.0883 28.8238 67.9095 29.6969 67.5521 30.5006C67.1947 31.3043 66.7062 31.9982 66.0808 32.5764C65.4553 33.1604 64.7166 33.6114 63.8648 33.941C63.0129 34.2648 62.1015 34.4325 61.1245 34.4325H56.4066V21.3302H61.1245ZM65.4255 27.8813C65.4255 27.3089 65.3123 26.7712 65.08 26.2681C64.8536 25.7593 64.5439 25.3199 64.1566 24.9498C63.7694 24.5797 63.3167 24.2791 62.7925 24.0594C62.2683 23.8396 61.7083 23.7298 61.1186 23.7298H58.9741V32.0618H61.1245C61.7143 32.0618 62.2742 31.9519 62.7985 31.7322C63.3227 31.5125 63.7754 31.2118 64.1626 30.8418C64.5498 30.4717 64.8536 30.0323 65.0859 29.5234C65.3123 29.0031 65.4255 28.4595 65.4255 27.8813Z" fill="white"/>
<path d="M76.7795 25.077C76.7795 24.8573 76.714 24.6491 76.5889 24.4641C76.4638 24.2733 76.297 24.1172 76.0945 23.9842C75.8919 23.8512 75.6537 23.7471 75.3796 23.6662C75.1056 23.591 74.8197 23.5505 74.5218 23.5505C74.218 23.5505 73.9381 23.591 73.6819 23.6662C73.4198 23.7413 73.1994 23.8454 73.0028 23.9726C72.8122 24.0998 72.6573 24.2444 72.5441 24.4121C72.4309 24.5797 72.3714 24.7532 72.3714 24.944C72.3714 25.2331 72.5024 25.4875 72.7586 25.7073C73.0147 25.927 73.3424 26.0889 73.7236 26.1872L75.8741 26.7191C76.3923 26.829 76.8748 26.9967 77.3276 27.2279C77.7803 27.4535 78.1794 27.731 78.519 28.0606C78.8645 28.3902 79.1325 28.7486 79.3351 29.1476C79.5317 29.5466 79.6329 29.9802 79.6329 30.4428C79.6329 31.021 79.5019 31.5472 79.2457 32.0213C78.9836 32.4954 78.6262 32.906 78.1675 33.2529C77.7088 33.594 77.1667 33.8658 76.5413 34.0566C75.9158 34.2532 75.2367 34.3457 74.5159 34.3457C73.807 34.3457 73.1398 34.2474 72.5203 34.0566C71.9008 33.86 71.3587 33.5883 70.9 33.2356C70.4413 32.8828 70.0839 32.455 69.8218 31.9635C69.5597 31.472 69.4346 30.9169 69.4346 30.3098H71.9127C71.9127 30.5758 71.9842 30.8186 72.1271 31.0441C72.2701 31.2639 72.4667 31.4547 72.705 31.6166C72.9432 31.7785 73.2232 31.9057 73.5389 31.9982C73.8547 32.0907 74.1763 32.137 74.5159 32.137C74.8554 32.137 75.1711 32.0907 75.475 32.004C75.7788 31.9172 76.0349 31.7958 76.2494 31.6397C76.4638 31.4836 76.6366 31.3043 76.7617 31.102C76.8868 30.8996 76.9523 30.6799 76.9523 30.4428C76.9523 30.0901 76.8034 29.7779 76.5115 29.5061C76.2136 29.2343 75.8264 29.0377 75.3439 28.9163L73.0862 28.367C72.6275 28.2572 72.1927 28.0953 71.7757 27.8871C71.3587 27.679 71.0013 27.4245 70.6915 27.1412C70.3817 26.8521 70.1375 26.5225 69.9588 26.1525C69.7801 25.7824 69.6848 25.3777 69.6848 24.9498C69.6848 24.4178 69.8099 23.9264 70.066 23.4811C70.3162 23.0301 70.6617 22.6485 71.0966 22.3363C71.5314 22.0183 72.0378 21.7754 72.6216 21.5962C73.2053 21.4169 73.8368 21.3302 74.5099 21.3302C75.1711 21.3302 75.7907 21.4227 76.3625 21.602C76.9344 21.787 77.4348 22.0414 77.8637 22.3768C78.2926 22.7121 78.6262 23.1053 78.8764 23.5679C79.1206 24.0304 79.2457 24.5335 79.2457 25.0886H76.7795V25.077Z" fill="white"/>
<path d="M97.0631 30.57C97.0631 31.1309 96.9499 31.6455 96.7176 32.1138C96.4912 32.588 96.1755 32.9927 95.7883 33.3339C95.3951 33.675 94.9365 33.9468 94.4063 34.1376C93.8761 34.3284 93.3162 34.4267 92.7264 34.4267H86.3286V21.3302H92.4226C92.9766 21.3302 93.5008 21.4169 93.9893 21.5904C94.4778 21.7639 94.9067 22.0125 95.27 22.3247C95.6394 22.637 95.9253 23.0128 96.1398 23.4522C96.3483 23.8917 96.4555 24.3716 96.4555 24.892C96.4555 25.2273 96.4019 25.528 96.3006 25.794C96.1993 26.0542 96.0742 26.2912 95.9194 26.4994C95.7704 26.7076 95.5977 26.8868 95.413 27.0429C95.2283 27.1933 95.0437 27.3205 94.859 27.4245C95.1211 27.5402 95.3892 27.6905 95.6573 27.8813C95.9194 28.0664 96.1576 28.2919 96.3602 28.552C96.5627 28.8122 96.7355 29.1129 96.8665 29.4425C96.9976 29.7721 97.0631 30.1479 97.0631 30.57ZM88.8901 26.3953H92.4167C92.8039 26.3953 93.1255 26.2681 93.3936 26.0137C93.6557 25.7593 93.7927 25.4413 93.7927 25.0712C93.7927 24.7012 93.6617 24.3832 93.3936 24.1172C93.1255 23.857 92.8039 23.724 92.4167 23.724H88.8901V26.3953ZM94.4242 30.4139C94.4242 30.1942 94.3765 29.986 94.2871 29.7836C94.1978 29.587 94.0786 29.4136 93.9238 29.269C93.7748 29.1245 93.5902 29.0088 93.3817 28.9221C93.1732 28.8354 92.9528 28.7891 92.7205 28.7891H88.8901V32.056H92.7205C92.9468 32.056 93.1672 32.0097 93.3817 31.923C93.5902 31.8363 93.7748 31.7206 93.9238 31.5761C94.0727 31.4315 94.1978 31.2581 94.2871 31.0615C94.3765 30.8591 94.4242 30.6452 94.4242 30.4139Z" fill="white"/>
<path d="M101.4 21.3302H98.868V34.4325H101.4V21.3302Z" fill="white"/>
<path d="M113.242 23.7587V34.1202H110.913V32.6342H110.877C110.597 33.1372 110.186 33.5593 109.638 33.9063C109.09 34.2532 108.417 34.4267 107.625 34.4267C107.023 34.4267 106.475 34.3168 105.981 34.1029C105.486 33.8889 105.063 33.5882 104.706 33.2008C104.349 32.8134 104.074 32.3451 103.872 31.8074C103.675 31.2638 103.574 30.6683 103.574 30.0265V23.7587H106.106V29.7027C106.106 30.0265 106.165 30.3214 106.285 30.5989C106.404 30.8764 106.57 31.1135 106.773 31.3217C106.976 31.5298 107.22 31.6975 107.506 31.8131C107.792 31.9346 108.089 31.9924 108.399 31.9924C108.727 31.9924 109.025 31.9346 109.305 31.8131C109.585 31.6917 109.823 31.5298 110.037 31.3217C110.246 31.1135 110.413 30.8707 110.532 30.5989C110.651 30.3271 110.711 30.0265 110.711 29.7027V23.7587H113.242Z" fill="white"/>
<path d="M126.383 29.0666C126.383 29.2632 126.371 29.454 126.348 29.6333C126.324 29.8125 126.288 30.0033 126.24 30.1999H117.871C118.097 30.7608 118.467 31.2176 118.973 31.5703C119.479 31.923 120.063 32.1023 120.724 32.1023C121.195 32.1023 121.63 32.0097 122.023 31.8305C122.422 31.6512 122.767 31.4026 123.071 31.0904H125.853C125.674 31.605 125.412 32.0676 125.067 32.4781C124.721 32.8944 124.328 33.2413 123.881 33.5247C123.435 33.808 122.94 34.0335 122.398 34.1896C121.856 34.3457 121.296 34.4267 120.718 34.4267C119.986 34.4267 119.271 34.2879 118.586 34.0046C117.901 33.727 117.293 33.3454 116.769 32.8597C116.245 32.374 115.828 31.8074 115.512 31.154C115.196 30.5006 115.041 29.801 115.041 29.0609C115.041 28.2918 115.19 27.5806 115.494 26.9273C115.798 26.2739 116.203 25.713 116.721 25.2331C117.239 24.7532 117.847 24.3831 118.538 24.1172C119.229 23.8512 119.968 23.7182 120.754 23.7182C121.522 23.7182 122.249 23.857 122.934 24.1403C123.613 24.4178 124.209 24.7995 124.721 25.2736C125.234 25.7535 125.639 26.3144 125.931 26.9677C126.234 27.6211 126.383 28.3208 126.383 29.0666ZM123.637 28.0548C123.423 27.4361 123.053 26.9504 122.535 26.5861C122.017 26.2276 121.427 26.0426 120.766 26.0426C120.117 26.0426 119.533 26.2219 119.015 26.5861C118.496 26.9446 118.127 27.4361 117.913 28.0548H123.637Z" fill="white"/>
<path d="M129.683 32.7905C129.683 33.6925 128.927 34.4211 127.997 34.4211C127.068 34.4211 126.312 33.6925 126.312 32.7905C126.312 31.8885 127.068 31.16 127.997 31.16C128.933 31.16 129.683 31.8885 129.683 32.7905Z" fill="#0038FF"/>
<path d="M41.8835 31.1309H26.6337V3.21484H26.7528V31.0152H41.8835V31.1309Z" fill="white"/>
<path d="M28.1169 2.63666L27.7416 3.22643V3.64853H27.5451V3.22643L27.1638 2.63666H27.3961L27.6404 3.02406H27.6463L27.8846 2.63666H28.1169Z" fill="white"/>
<path d="M42.8069 32.7152H42.5746L42.3482 32.374H42.3422L42.1218 32.7152H41.8835L42.2231 32.2121L41.8835 31.7033H42.1218L42.3422 32.0445H42.3482L42.5746 31.7033H42.8069L42.4733 32.2121L42.8069 32.7152Z" fill="white"/>
<path d="M26.1214 31.0788C26.1214 31.154 26.1095 31.2234 26.0797 31.287C26.0499 31.3506 26.0082 31.4084 25.9605 31.4547C25.9069 31.5009 25.8474 31.5414 25.7818 31.5645C25.7163 31.5935 25.6389 31.605 25.5614 31.605C25.484 31.605 25.4125 31.5935 25.341 31.5645C25.2755 31.5356 25.2159 31.5009 25.1623 31.4547C25.1087 31.4084 25.0729 31.3506 25.0432 31.287C25.0134 31.2234 25.0015 31.154 25.0015 31.0788C25.0015 31.0037 25.0134 30.9343 25.0432 30.8707C25.0729 30.8071 25.1146 30.7493 25.1623 30.703C25.21 30.6567 25.2695 30.6163 25.341 30.5931C25.4125 30.57 25.484 30.5527 25.5614 30.5527C25.6389 30.5527 25.7103 30.5642 25.7818 30.5931C25.8474 30.6221 25.9069 30.6567 25.9605 30.703C26.0142 30.7493 26.0499 30.8071 26.0797 30.8707C26.1035 30.9343 26.1214 31.0095 26.1214 31.0788ZM25.9129 31.0788C25.9129 31.0326 25.901 30.9863 25.8831 30.9459C25.8652 30.9054 25.8414 30.8649 25.8057 30.836C25.7759 30.8071 25.7342 30.7782 25.6925 30.7608C25.6508 30.7435 25.6031 30.7319 25.5555 30.7319C25.5078 30.7319 25.4602 30.7435 25.4185 30.7608C25.3768 30.7782 25.3351 30.8013 25.3053 30.836C25.2755 30.8649 25.2457 30.9054 25.2278 30.9459C25.21 30.9863 25.198 31.0326 25.198 31.0788C25.198 31.1251 25.21 31.1714 25.2278 31.2118C25.2457 31.2523 25.2695 31.2928 25.3053 31.3217C25.3351 31.3506 25.3768 31.3795 25.4185 31.3969C25.4602 31.4142 25.5078 31.4258 25.5555 31.4258C25.6031 31.4258 25.6508 31.4142 25.6925 31.3969C25.7342 31.3795 25.7759 31.3564 25.8057 31.3217C25.8354 31.2928 25.8652 31.2523 25.8831 31.2118C25.9069 31.1714 25.9129 31.1309 25.9129 31.0788Z" fill="white"/>
<path d="M26.6873 2.3822L26.1929 3.21483H27.1817L26.6873 2.3822Z" fill="white"/>
<path d="M42.7414 31.0731L41.8835 30.5931V31.5588L42.7414 31.0731Z" fill="white"/>
<path d="M87.5736 38.6187H87.1983L86.698 37.786H86.686L86.692 39.272H86.2988V37.1905H86.7635L87.377 38.2024H87.389L88.0085 37.1905H88.4731V39.272H88.08L88.0859 37.786H88.074L87.5736 38.6187Z" fill="white"/>
<path d="M94.2633 38.2313C94.2633 38.3874 94.2335 38.5261 94.174 38.6591C94.1144 38.7921 94.031 38.9078 93.9297 39.0061C93.8285 39.1044 93.7034 39.1795 93.5663 39.2373C93.4234 39.2952 93.2744 39.3183 93.1196 39.3183C92.9587 39.3183 92.8098 39.2894 92.6728 39.2373C92.5358 39.1795 92.4107 39.1044 92.3094 39.0061C92.2082 38.9078 92.1248 38.7921 92.0652 38.6591C92.0056 38.5261 91.9758 38.3816 91.9758 38.2313C91.9758 38.0751 92.0056 37.9364 92.0652 37.8034C92.1248 37.6704 92.2082 37.5548 92.3094 37.4565C92.4107 37.3582 92.5358 37.283 92.6728 37.2252C92.8098 37.1674 92.9587 37.1442 93.1196 37.1442C93.2804 37.1442 93.4293 37.1731 93.5663 37.2252C93.7093 37.283 93.8285 37.3582 93.9297 37.4565C94.031 37.5548 94.1144 37.6704 94.174 37.8034C94.2335 37.9306 94.2633 38.0751 94.2633 38.2313ZM93.8463 38.2313C93.8463 38.133 93.8285 38.0405 93.7868 37.9537C93.751 37.867 93.6974 37.7918 93.6319 37.7282C93.5663 37.6646 93.4889 37.6126 93.3996 37.5779C93.3102 37.5432 93.2149 37.5201 93.1136 37.5201C93.0123 37.5201 92.917 37.5374 92.8277 37.5779C92.7383 37.6126 92.6609 37.6646 92.5954 37.7282C92.5298 37.7918 92.4762 37.867 92.4405 37.9537C92.4047 38.0405 92.3809 38.133 92.3809 38.2313C92.3809 38.3296 92.3988 38.4221 92.4405 38.5088C92.4762 38.5955 92.5298 38.6707 92.5954 38.7343C92.6609 38.7979 92.7383 38.8499 92.8277 38.8846C92.917 38.9193 93.0123 38.9425 93.1136 38.9425C93.2149 38.9425 93.3102 38.9251 93.3996 38.8846C93.4889 38.8499 93.5663 38.7979 93.6319 38.7343C93.6974 38.6707 93.751 38.5955 93.7868 38.5088C93.8225 38.4221 93.8463 38.3296 93.8463 38.2313Z" fill="white"/>
<path d="M98.4987 37.1905C98.6535 37.1905 98.7965 37.2136 98.9335 37.2657C99.0705 37.3177 99.1837 37.3871 99.285 37.4796C99.3862 37.5721 99.4637 37.682 99.5173 37.8092C99.5709 37.9364 99.6007 38.0752 99.6007 38.2255C99.6007 38.3758 99.5709 38.5146 99.5173 38.6418C99.4637 38.769 99.3862 38.8789 99.285 38.9714C99.1837 39.0639 99.0705 39.1333 98.9335 39.1853C98.7965 39.2374 98.6535 39.2605 98.4987 39.2605H97.754V37.179H98.4987V37.1905ZM99.1777 38.2313C99.1777 38.1388 99.1599 38.0578 99.1241 37.9769C99.0884 37.8959 99.0407 37.8266 98.9812 37.7687C98.9216 37.7109 98.8501 37.6647 98.7667 37.63C98.6833 37.5953 98.594 37.5779 98.5046 37.5779H98.1651V38.902H98.5046C98.5999 38.902 98.6833 38.8847 98.7667 38.85C98.8501 38.8153 98.9216 38.769 98.9812 38.7112C99.0407 38.6534 99.0884 38.584 99.1241 38.5031C99.1599 38.4105 99.1777 38.3238 99.1777 38.2313Z" fill="white"/>
<path d="M104.664 38.8962V39.272H103.092V37.1905H104.664V37.5721H103.497V38.0405H104.468V38.4163H103.497V38.8962H104.664Z" fill="white"/>
<path d="M109.632 39.272H108.155V37.1905H108.566V38.8962H109.632V39.272Z" fill="white"/>
<path d="M118.758 37.9017C118.758 38.0058 118.741 38.0983 118.699 38.185C118.657 38.2717 118.604 38.3469 118.538 38.4105C118.467 38.4741 118.389 38.5204 118.3 38.5609C118.21 38.5955 118.109 38.6129 118.008 38.6129H117.472V39.272H117.067V37.1905H118.008C118.115 37.1905 118.21 37.2078 118.3 37.2425C118.389 37.2772 118.473 37.3293 118.538 37.3929C118.61 37.4565 118.663 37.5316 118.699 37.6184C118.735 37.7051 118.758 37.7976 118.758 37.9017ZM118.341 37.9017C118.341 37.8554 118.33 37.815 118.312 37.7745C118.294 37.734 118.27 37.6993 118.24 37.6704C118.21 37.6415 118.175 37.6184 118.133 37.601C118.091 37.5837 118.05 37.5721 118.002 37.5721H117.466V38.2313H118.002C118.05 38.2313 118.091 38.2197 118.133 38.2024C118.175 38.185 118.21 38.1619 118.24 38.133C118.27 38.1041 118.294 38.0694 118.312 38.0289C118.335 37.9884 118.341 37.9479 118.341 37.9017Z" fill="white"/>
<path d="M123.947 37.9017C123.947 38.052 123.905 38.185 123.828 38.2949C123.744 38.4105 123.643 38.4915 123.512 38.5435L123.887 39.272H123.435L123.095 38.6129H122.654V39.272H122.249V37.1905H123.19C123.298 37.1905 123.393 37.2078 123.482 37.2425C123.572 37.2772 123.655 37.3293 123.721 37.3929C123.792 37.4565 123.846 37.5316 123.881 37.6184C123.929 37.7051 123.947 37.7976 123.947 37.9017ZM123.53 37.9017C123.53 37.8554 123.518 37.815 123.5 37.7745C123.482 37.734 123.458 37.6993 123.429 37.6704C123.399 37.6415 123.363 37.6184 123.321 37.601C123.28 37.5837 123.238 37.5721 123.19 37.5721H122.654V38.2313H123.19C123.238 38.2313 123.28 38.2197 123.321 38.2024C123.363 38.185 123.399 38.1619 123.429 38.133C123.458 38.1041 123.482 38.0694 123.5 38.0289C123.524 37.9884 123.53 37.9479 123.53 37.9017Z" fill="white"/>
<path d="M129.677 38.2313C129.677 38.3874 129.648 38.5261 129.588 38.6591C129.529 38.7921 129.445 38.9078 129.344 39.0061C129.243 39.1044 129.118 39.1795 128.981 39.2373C128.838 39.2952 128.689 39.3183 128.534 39.3183C128.373 39.3183 128.224 39.2894 128.087 39.2373C127.95 39.1795 127.825 39.1044 127.724 39.0061C127.622 38.9078 127.539 38.7921 127.479 38.6591C127.42 38.5261 127.39 38.3816 127.39 38.2313C127.39 38.0751 127.42 37.9364 127.479 37.8034C127.539 37.6704 127.622 37.5548 127.724 37.4565C127.825 37.3582 127.95 37.283 128.087 37.2252C128.224 37.1674 128.373 37.1442 128.534 37.1442C128.695 37.1442 128.844 37.1731 128.981 37.2252C129.123 37.283 129.243 37.3582 129.344 37.4565C129.445 37.5548 129.529 37.6704 129.588 37.8034C129.648 37.9306 129.677 38.0751 129.677 38.2313ZM129.261 38.2313C129.261 38.133 129.243 38.0405 129.201 37.9537C129.165 37.867 129.112 37.7918 129.046 37.7282C128.981 37.6646 128.903 37.6126 128.814 37.5779C128.724 37.5432 128.629 37.5201 128.528 37.5201C128.427 37.5201 128.331 37.5374 128.242 37.5779C128.153 37.6126 128.075 37.6646 128.01 37.7282C127.944 37.7918 127.89 37.867 127.855 37.9537C127.819 38.0405 127.795 38.133 127.795 38.2313C127.795 38.3296 127.813 38.4221 127.855 38.5088C127.89 38.5955 127.944 38.6707 128.01 38.7343C128.075 38.7979 128.153 38.8499 128.242 38.8846C128.331 38.9193 128.427 38.9425 128.528 38.9425C128.629 38.9425 128.724 38.9251 128.814 38.8846C128.903 38.8499 128.981 38.7979 129.046 38.7343C129.112 38.6707 129.165 38.5955 129.201 38.5088C129.243 38.4221 129.261 38.3296 129.261 38.2313Z" fill="white"/>
</g>
<defs>
<linearGradient id="paint0_linear_504_5694" x1="17.2729" y1="19.677" x2="33.8176" y2="40.9376" gradientUnits="userSpaceOnUse">
<stop stop-color="#00B9B9"/>
<stop offset="0.1337" stop-color="#00B3BC"/>
<stop offset="0.3176" stop-color="#00A1C6"/>
<stop offset="0.5307" stop-color="#0084D6"/>
<stop offset="0.7637" stop-color="#005CEC"/>
<stop offset="0.9424" stop-color="#0038FF"/>
<stop offset="1" stop-color="#0038FF"/>
</linearGradient>
<linearGradient id="paint1_linear_504_5694" x1="18.7319" y1="6.08429" x2="22.6605" y2="13.3272" gradientUnits="userSpaceOnUse">
<stop stop-color="#00B9B9"/>
<stop offset="0.1114" stop-color="#00B9B9"/>
<stop offset="0.4139" stop-color="#0087D4"/>
<stop offset="0.857" stop-color="#0038FF"/>
<stop offset="1" stop-color="#0038FF"/>
</linearGradient>
<clipPath id="clip0_504_5694">
<rect width="131" height="57" fill="white"/>
</clipPath>
</defs>
</svg>
