<svg width="40" height="40" viewBox="0 0 40 40" fill="none" xmlns="http://www.w3.org/2000/svg">
<g clip-path="url(#clip0_504_3995)">
<rect width="40" height="40" rx="20" fill="#F3F3F3"/>
<g clip-path="url(#clip1_504_3995)">
<path d="M20 13C18.1004 13 17.8615 13.0088 17.1151 13.042C16.3688 13.077 15.8604 13.1942 15.415 13.3675C14.9478 13.5432 14.5247 13.8188 14.1751 14.1751C13.8191 14.5249 13.5435 14.948 13.3675 15.415C13.1942 15.8595 13.0761 16.3687 13.042 17.1125C13.0088 17.8606 13 18.0986 13 20.0009C13 21.9014 13.0088 22.1394 13.042 22.8857C13.077 23.6313 13.1942 24.1396 13.3675 24.585C13.5469 25.0452 13.7858 25.4355 14.1751 25.8249C14.5636 26.2142 14.9539 26.454 15.4141 26.6325C15.8604 26.8057 16.3679 26.9239 17.1134 26.958C17.8606 26.9913 18.0986 27 20 27C21.9014 27 22.1385 26.9913 22.8857 26.958C23.6304 26.923 24.1405 26.8057 24.5859 26.6325C25.0527 26.4567 25.4756 26.1811 25.8249 25.8249C26.2142 25.4355 26.4531 25.0452 26.6325 24.585C26.8049 24.1396 26.923 23.6313 26.958 22.8857C26.9913 22.1394 27 21.9014 27 20C27 18.0986 26.9913 17.8606 26.958 17.1134C26.923 16.3688 26.8049 15.8595 26.6325 15.415C26.4566 14.9479 26.181 14.5248 25.8249 14.1751C25.4754 13.8187 25.0522 13.5431 24.585 13.3675C24.1388 13.1942 23.6295 13.0761 22.8849 13.042C22.1376 13.0088 21.9005 13 19.9983 13H20.0009H20ZM19.3726 14.2617H20.0009C21.8699 14.2617 22.0912 14.2679 22.8289 14.302C23.5114 14.3326 23.8824 14.4473 24.1291 14.5426C24.4555 14.6695 24.6891 14.8218 24.9341 15.0668C25.1791 15.3117 25.3305 15.5445 25.4574 15.8718C25.5536 16.1176 25.6674 16.4886 25.698 17.1711C25.7321 17.9088 25.7391 18.1301 25.7391 19.9983C25.7391 21.8664 25.7321 22.0886 25.698 22.8263C25.6674 23.5087 25.5528 23.8789 25.4574 24.1256C25.3451 24.4296 25.166 24.7044 24.9332 24.9297C24.6882 25.1747 24.4555 25.3261 24.1283 25.453C23.8833 25.5493 23.5122 25.663 22.8289 25.6945C22.0912 25.7278 21.8699 25.7356 20.0009 25.7356C18.1319 25.7356 17.9096 25.7278 17.172 25.6945C16.4895 25.663 16.1194 25.5493 15.8726 25.453C15.5686 25.3409 15.2935 25.1621 15.0676 24.9297C14.8347 24.704 14.6553 24.429 14.5426 24.1248C14.4473 23.8789 14.3326 23.5079 14.302 22.8254C14.2688 22.0878 14.2617 21.8664 14.2617 19.9965C14.2617 18.1275 14.2688 17.907 14.302 17.1694C14.3335 16.4869 14.4473 16.1159 14.5435 15.8691C14.6704 15.5428 14.8226 15.3091 15.0676 15.0641C15.3126 14.8191 15.5454 14.6678 15.8726 14.5409C16.1194 14.4446 16.4895 14.3309 17.172 14.2994C17.8177 14.2696 18.068 14.2609 19.3726 14.26V14.2617ZM23.7371 15.4237C23.6268 15.4237 23.5176 15.4455 23.4157 15.4877C23.3138 15.5299 23.2212 15.5918 23.1432 15.6698C23.0652 15.7478 23.0033 15.8404 22.9611 15.9423C22.9189 16.0442 22.8971 16.1534 22.8971 16.2638C22.8971 16.3741 22.9189 16.4833 22.9611 16.5852C23.0033 16.6871 23.0652 16.7797 23.1432 16.8577C23.2212 16.9357 23.3138 16.9976 23.4157 17.0398C23.5176 17.082 23.6268 17.1038 23.7371 17.1038C23.9599 17.1038 24.1736 17.0153 24.3311 16.8577C24.4886 16.7002 24.5771 16.4865 24.5771 16.2638C24.5771 16.041 24.4886 15.8273 24.3311 15.6698C24.1736 15.5122 23.9599 15.4237 23.7371 15.4237ZM20.0009 16.4055C19.5241 16.3981 19.0505 16.4855 18.6079 16.6629C18.1652 16.8402 17.7622 17.1038 17.4224 17.4384C17.0826 17.7729 16.8127 18.1717 16.6285 18.6116C16.4443 19.0515 16.3494 19.5236 16.3494 20.0004C16.3494 20.4773 16.4443 20.9494 16.6285 21.3893C16.8127 21.8291 17.0826 22.2279 17.4224 22.5625C17.7622 22.8971 18.1652 23.1607 18.6079 23.338C19.0505 23.5153 19.5241 23.6028 20.0009 23.5954C20.9446 23.5807 21.8447 23.1954 22.5069 22.5228C23.169 21.8503 23.5402 20.9443 23.5402 20.0004C23.5402 19.0566 23.169 18.1506 22.5069 17.478C21.8447 16.8055 20.9446 16.4202 20.0009 16.4055ZM20.0009 17.6664C20.6198 17.6664 21.2134 17.9122 21.651 18.3499C22.0886 18.7875 22.3345 19.3811 22.3345 20C22.3345 20.6189 22.0886 21.2125 21.651 21.6501C21.2134 22.0878 20.6198 22.3336 20.0009 22.3336C19.382 22.3336 18.7884 22.0878 18.3508 21.6501C17.9131 21.2125 17.6673 20.6189 17.6673 20C17.6673 19.3811 17.9131 18.7875 18.3508 18.3499C18.7884 17.9122 19.382 17.6664 20.0009 17.6664Z" fill="url(#paint0_linear_504_3995)"/>
</g>
</g>
<defs>
<linearGradient id="paint0_linear_504_3995" x1="13" y1="20" x2="27" y2="20" gradientUnits="userSpaceOnUse">
<stop stop-color="#DF0037"/>
<stop offset="1" stop-color="#BE0491"/>
</linearGradient>
<clipPath id="clip0_504_3995">
<rect width="40" height="40" rx="20" fill="white"/>
</clipPath>
<clipPath id="clip1_504_3995">
<rect width="14" height="14" fill="white" transform="translate(13 13)"/>
</clipPath>
</defs>
</svg>
