<svg width="40" height="40" viewBox="0 0 40 40" fill="none" xmlns="http://www.w3.org/2000/svg">
<g clip-path="url(#clip0_504_4005)">
<rect width="40" height="40" rx="20" fill="#F3F3F3"/>
<path d="M12.5 15.375V24.625H16.969C17.383 24.625 20.234 24.541 20.234 21.9375C20.234 20.3105 19.115 19.7575 18.547 19.5935C18.965 19.3965 19.797 18.9275 19.797 17.672C19.797 16.9725 19.697 15.375 16.844 15.375H12.5ZM22.6875 16.2345V17.078H26.1405V16.235L22.6875 16.2345ZM14.531 16.953H16.4375C16.6175 16.953 17.828 16.8575 17.828 18.0155C17.828 19.0055 16.953 19.1095 16.5935 19.1095H14.532L14.531 16.953ZM24.5 17.8435C21.8885 17.8435 21.3435 20.1115 21.3435 21.0935C21.3435 24.01 23.7345 24.3435 24.5 24.3435C26.5645 24.3435 27.15 23.008 27.3905 22.2655H25.8905C25.832 22.457 25.3945 23.078 24.5625 23.078C23.1675 23.078 23.047 21.988 23.047 21.5H27.4845C27.5745 19.8125 26.836 17.8435 24.5 17.8435ZM24.453 19.1095C24.869 19.1095 25.205 19.2305 25.4065 19.453C25.6075 19.678 25.756 20.006 25.7965 20.4375H23.0465C23.0545 20.3185 23.082 20.1815 23.125 20.031C23.168 19.877 23.2345 19.7305 23.344 19.5935C23.453 19.459 23.6055 19.342 23.7815 19.25C23.961 19.156 24.1835 19.1095 24.453 19.1095ZM14.5315 20.5H16.7345C17.172 20.5 18.203 20.5685 18.203 21.828C18.203 23.049 16.9045 23.047 16.703 23.047H14.531L14.5315 20.5Z" fill="#225BF9"/>
</g>
<defs>
<clipPath id="clip0_504_4005">
<rect width="40" height="40" rx="20" fill="white"/>
</clipPath>
</defs>
</svg>
